# xmcd
#
# Track frame offsets:
#	300
#	15862
#	31148
#	45459
#
# Disc length: 830 seconds
#
# Revision: 0
# Processed by: cddbd v1.5.2PL0 Copyright (c) Steve Scherf et al.
# Submitted via: EasyCDDAExtractor 16.0.6.1
#
DISCID=1e033a04
DTITLE=Βέμπο Σοφία - Τραγουδώντας με την Σοφία για την Ελλάδα
DYEAR=2008
DGENRE=Πατριωτική
TTITLE0=Παιδιά, της Ελλάδος παιδιά [1941, Μιχ. Σουγιούλ-Μίμης Τραϊφόρος/Αιμίλ.
TTITLE0=Σαββίδης]
TTITLE1=Βάζει ο Ντούτσε την στολή του [1940, Θεόφρ. Σακελλαριάδης-Γιώργος Θίσβ
TTITLE1=ιος]
TTITLE2=Στον πόλεμο βγαίν' ο Ιταλός [1940, Σ. Βέμπο/Απ. Μοσχούτης-Γιώργος Θίσβ
TTITLE2=ιος]
TTITLE3=Όχι καινούργιο πόλεμο [1941, Μίμης Τραϊφόρος-Ζακ Ιακωβίδης]
EXTD=
EXTT0=
EXTT1=
EXTT2=
EXTT3=
PLAYORDER=
